<svg xmlns="http://www.w3.org/2000/svg" viewBox="0 0 712 617" width="712" height="617">
	<style>
		tspan { white-space:pre }
		.shp0 { fill: #f0f0f0 } 
		.shp1 { fill: #3f3d56 } 
		.shp2 { fill: #6c63ff } 
		.shp3 { opacity: 0.102;fill: #000000 } 
		.shp4 { fill: #2f2e41 } 
		.shp5 { fill: #ffb8b8 } 
		.shp6 { fill: #ff6584 } 
	</style>
	<path id="Layer" class="shp0" d="M143.9 427L206.07 329.23L66.83 240.69L-5.07 353.77L110.09 427L143.9 427L143.9 427Z" />
	<path id="Layer" fill-rule="evenodd" class="shp1" d="M232 457.5L78 457.5L78 426.5L232 426.5L232 457.5ZM80 455.5L230 455.5L230 428.5L80 428.5L80 455.5Z" />
	<path id="Layer" class="shp2" d="M213 452C207.47 452 203 447.53 203 442C203 436.47 207.47 432 213 432C218.53 432 223 436.47 223 442C223 447.53 218.53 452 213 452Z" />
	<path id="Layer" class="shp2" d="M185 452C179.47 452 175 447.53 175 442C175 436.47 179.47 432 185 432C190.53 432 195 436.47 195 442C195 447.53 190.53 452 185 452Z" />
	<path id="Layer" class="shp2" d="M157 452C151.47 452 147 447.53 147 442C147 436.47 151.47 432 157 432C162.53 432 167 436.47 167 442C167 447.53 162.53 452 157 452Z" />
	<path id="Layer" class="shp2" d="M129 452C123.47 452 119 447.53 119 442C119 436.47 123.47 432 129 432C134.53 432 139 436.47 139 442C139 447.53 134.53 452 129 452Z" />
	<path id="Layer" class="shp2" d="M101 452C95.47 452 91 447.53 91 442C91 436.47 95.47 432 101 432C106.53 432 111 436.47 111 442C111 447.53 106.53 452 101 452Z" />
	<path id="Layer" class="shp0" d="M415 113L415 37L453 37L453 0L267 0L267 186L426 186L426 167.81C426 164.42 426.67 161.07 427.97 157.94C429.26 154.8 431.16 151.96 433.56 149.56C435.96 147.16 438.8 145.26 441.94 143.96C445.07 142.67 448.42 142 451.81 142L453 142L453 113L415 113Z" />
	<path id="Layer" class="shp2" d="M497 480L621 480L621 506L497 506L497 480Z" />
	<path id="Layer" class="shp0" d="M466 352L648 352L648 376L466 376L466 352Z" />
	<path id="Layer" class="shp1" d="M-41 615L737 615L737 617L-41 617L-41 615Z" />
	<path id="Layer" fill-rule="evenodd" class="shp1" d="M451.81 617C448.29 617 444.81 616.3 441.56 614.95C438.31 613.6 435.35 611.63 432.86 609.14C430.37 606.65 428.4 603.69 427.05 600.44C425.7 597.19 425 593.71 425 590.19L425 167.81C425 164.29 425.7 160.81 427.05 157.56C428.4 154.31 430.37 151.35 432.86 148.86C435.35 146.37 438.31 144.4 441.56 143.05C444.81 141.7 448.29 141 451.81 141L679.19 141C682.71 141 686.19 141.7 689.44 143.05C692.69 144.4 695.65 146.37 698.14 148.86C700.63 151.35 702.6 154.31 703.95 157.56C705.3 160.81 706 164.29 706 167.81L706 590.19C706 593.71 705.3 597.19 703.95 600.44C702.6 603.69 700.63 606.65 698.14 609.14C695.65 611.63 692.69 613.6 689.44 614.95C686.19 616.3 682.71 617 679.19 617L451.81 617ZM451.81 143C448.56 143 445.33 143.65 442.32 144.9C439.31 146.14 436.58 147.97 434.28 150.28C431.97 152.58 430.14 155.31 428.9 158.32C427.65 161.33 427 164.56 427 167.81L427 590.19C427 593.44 427.65 596.67 428.9 599.68C430.14 602.69 431.97 605.42 434.28 607.72C436.58 610.03 439.31 611.86 442.32 613.1C445.33 614.35 448.56 615 451.81 615L679.19 615C682.44 615 685.67 614.35 688.68 613.1C691.69 611.86 694.42 610.03 696.72 607.72C699.03 605.42 700.86 602.69 702.1 599.68C703.35 596.67 704 593.44 704 590.19L704 167.81C704 164.56 703.35 161.33 702.1 158.32C700.86 155.31 699.03 152.58 696.72 150.28C694.42 147.97 691.69 146.14 688.68 144.9C685.67 143.65 682.44 143 679.19 143L451.81 143Z" />
	<path id="Layer" fill-rule="evenodd" class="shp1" d="M538.5 161C536.07 161 533.89 159.54 532.96 157.3C532.03 155.05 532.54 152.47 534.26 150.76C535.97 149.04 538.55 148.53 540.8 149.46C543.04 150.39 544.5 152.57 544.5 155C544.5 155.79 544.34 156.57 544.04 157.3C543.74 158.02 543.3 158.68 542.74 159.24C542.18 159.8 541.52 160.24 540.8 160.54C540.07 160.84 539.29 161 538.5 161ZM534.8 153.47C534.19 154.96 534.53 156.68 535.67 157.83C536.82 158.97 538.54 159.31 540.03 158.7C541.53 158.08 542.5 156.62 542.5 155C542.5 154.47 542.4 153.95 542.19 153.47C541.99 152.98 541.7 152.54 541.33 152.17C540.96 151.8 540.52 151.51 540.03 151.31C539.55 151.1 539.03 151 538.5 151C536.88 151 535.42 151.97 534.8 153.47Z" />
	<path id="Layer" class="shp1" d="M553.5 154L597.5 154L597.5 156L553.5 156L553.5 154Z" />
	<path id="Layer" class="shp2" d="M688 170L688 250C677.49 250 667.09 247.93 657.39 243.91C647.68 239.89 638.86 234 631.43 226.57C624 219.14 618.11 210.32 614.09 200.61C610.07 190.91 608 180.51 608 170L688 170Z" />
	<path id="Layer" fill-rule="evenodd" class="shp1" d="M689 590L442 590L442 169L689 169L689 590ZM444 588L687 588L687 171L444 171L444 588Z" />
	<path id="Layer" class="shp3" d="M630 245C615.07 245 603 232.93 603 218C603 203.07 615.07 191 630 191C644.93 191 657 203.07 657 218C657 232.93 644.93 245 630 245Z" />
	<path id="Layer" class="shp2" d="M626 248C611.07 248 599 235.93 599 221C599 206.07 611.07 194 626 194C640.93 194 653 206.07 653 221C653 235.93 640.93 248 626 248Z" />
	<path id="Layer" class="shp1" d="M453 186L491 186L491 200L453 200L453 186Z" />
	<path id="Layer" class="shp1" d="M474 319L512 319L512 333L474 333L474 319Z" />
	<path id="Layer" fill-rule="evenodd" class="shp1" d="M658 371L474 371L474 345L658 345L658 371ZM476 369L656 369L656 347L476 347L476 369Z" />
	<path id="Layer" class="shp0" d="M466 428L648 428L648 452L466 452L466 428Z" />
	<path id="Layer" class="shp1" d="M474 395L512 395L512 409L474 409L474 395Z" />
	<path id="Layer" fill-rule="evenodd" class="shp1" d="M658 447L474 447L474 421L658 421L658 447ZM476 445L656 445L656 423L476 423L476 445Z" />
	<path id="Layer" fill-rule="evenodd" class="shp1" d="M629 500L503 500L503 472L629 472L629 500ZM505 498L627 498L627 474L505 474L505 498Z" />
	<path id="Layer" class="shp2" d="M653 361C653 363.06 652.36 365.07 651.18 366.75C650 368.44 648.32 369.71 646.38 370.41C644.45 371.11 642.34 371.19 640.36 370.64C638.37 370.1 636.6 368.96 635.29 367.37L635.28 367.36C633.34 365.01 632.58 361.91 633.21 358.93C633.84 355.95 635.8 353.42 638.52 352.06C641.24 350.7 644.43 350.65 647.2 351.93C649.96 353.2 651.99 355.67 652.71 358.63C652.71 358.63 652.71 358.63 652.71 358.63C652.71 358.64 652.71 358.64 652.71 358.64C652.71 358.64 652.71 358.64 652.72 358.64C652.72 358.64 652.72 358.64 652.72 358.64C652.77 358.83 652.81 359.03 652.84 359.22C652.88 359.42 652.91 359.61 652.93 359.81C652.95 360.01 652.97 360.21 652.98 360.4C652.99 360.6 653 360.8 653 361Z" />
	<path id="Layer" class="shp3" d="M653 361C653 363.06 652.36 365.07 651.18 366.75C650 368.44 648.32 369.71 646.38 370.41C644.45 371.11 642.34 371.19 640.36 370.64C638.37 370.1 636.6 368.96 635.29 367.37L635.28 367.36C635.23 367.17 635.19 366.97 635.16 366.78C635.12 366.58 635.09 366.39 635.07 366.19C635.05 365.99 635.03 365.79 635.02 365.6C635.01 365.4 635 365.2 635 365C635 362.94 635.64 360.93 636.82 359.25C638 357.56 639.68 356.29 641.62 355.59C643.55 354.89 645.66 354.81 647.64 355.36C649.63 355.9 651.4 357.04 652.71 358.63C652.71 358.63 652.71 358.63 652.71 358.63C652.71 358.64 652.71 358.64 652.71 358.64C652.71 358.64 652.71 358.64 652.72 358.64C652.72 358.64 652.72 358.64 652.72 358.64C652.77 358.83 652.81 359.03 652.84 359.22C652.88 359.42 652.91 359.61 652.93 359.81C652.95 360.01 652.97 360.21 652.98 360.4C652.99 360.6 653 360.8 653 361Z" />
	<path id="Layer" class="shp2" d="M647 377C641.47 377 637 372.53 637 367C637 361.47 641.47 357 647 357C652.53 357 657 361.47 657 367C657 372.53 652.53 377 647 377Z" />
	<path id="Layer" class="shp2" d="M653 437C653 439.06 652.36 441.07 651.18 442.75C650 444.44 648.32 445.71 646.38 446.41C644.45 447.11 642.34 447.19 640.36 446.64C638.37 446.1 636.6 444.96 635.29 443.37L635.28 443.36C633.34 441.01 632.58 437.91 633.21 434.93C633.84 431.95 635.8 429.42 638.52 428.06C641.24 426.7 644.43 426.65 647.2 427.93C649.96 429.2 651.99 431.67 652.71 434.63C652.71 434.63 652.71 434.63 652.71 434.63C652.71 434.64 652.71 434.64 652.71 434.64C652.71 434.64 652.71 434.64 652.72 434.64C652.72 434.64 652.72 434.64 652.72 434.64C652.77 434.83 652.81 435.03 652.84 435.22C652.88 435.42 652.91 435.61 652.93 435.81C652.95 436.01 652.97 436.21 652.98 436.4C652.99 436.6 653 436.8 653 437Z" />
	<path id="Layer" class="shp3" d="M653 437C653 439.06 652.36 441.07 651.18 442.75C650 444.44 648.32 445.71 646.38 446.41C644.45 447.11 642.34 447.19 640.36 446.64C638.37 446.1 636.6 444.96 635.29 443.37L635.28 443.36C635.23 443.17 635.19 442.97 635.16 442.78C635.12 442.58 635.09 442.39 635.07 442.19C635.05 441.99 635.03 441.79 635.02 441.6C635.01 441.4 635 441.2 635 441C635 438.94 635.64 436.93 636.82 435.25C638 433.56 639.68 432.29 641.62 431.59C643.55 430.89 645.66 430.81 647.64 431.36C649.63 431.9 651.4 433.04 652.71 434.63C652.71 434.63 652.71 434.63 652.71 434.63C652.71 434.64 652.71 434.64 652.71 434.64C652.71 434.64 652.71 434.64 652.72 434.64C652.72 434.64 652.72 434.64 652.72 434.64C652.77 434.83 652.81 435.03 652.84 435.22C652.88 435.42 652.91 435.61 652.93 435.81C652.95 436.01 652.97 436.21 652.98 436.4C652.99 436.6 653 436.8 653 437Z" />
	<path id="Layer" class="shp2" d="M647 453C641.47 453 637 448.53 637 443C637 437.47 641.47 433 647 433C652.53 433 657 437.47 657 443C657 448.53 652.53 453 647 453Z" />
	<path id="Layer" class="shp0" d="M427 48L479 48L479 100L427 100L427 48Z" />
	<path id="Layer" fill-rule="evenodd" class="shp1" d="M618.91 78.59C617.06 74.11 618.08 68.95 621.51 65.51C624.95 62.08 630.11 61.06 634.59 62.91C639.08 64.77 642 69.15 642 74C642 75.58 641.69 77.14 641.08 78.59C640.48 80.05 639.6 81.37 638.48 82.48C637.37 83.6 636.05 84.48 634.59 85.08C633.14 85.69 631.58 86 630 86C625.15 86 620.77 83.08 618.91 78.59ZM620.76 70.17C619.21 73.91 620.07 78.21 622.93 81.07C625.79 83.93 630.09 84.79 633.83 83.24C637.56 81.69 640 78.04 640 74C640 72.69 639.74 71.39 639.24 70.17C638.73 68.96 638 67.86 637.07 66.93C636.14 66 635.04 65.27 633.83 64.76C632.61 64.26 631.31 64 630 64C625.96 64 622.31 66.44 620.76 70.17Z" />
	<path id="Layer" fill-rule="evenodd" class="shp1" d="M366 253L340 253L340 227L366 227L366 253ZM342 251L364 251L364 229L342 229L342 251Z" />
	<path id="Layer" fill-rule="evenodd" class="shp1" d="M762 447L736 447L736 421L762 421L762 447ZM738 445L760 445L760 423L738 423L738 445Z" />
	<path id="Layer" class="shp4" d="M249 272.67L253.46 275.07L268.65 283.25L293.16 296.46L307.44 269.96C308.79 267.47 309.63 264.74 309.92 261.92C310.2 259.1 309.93 256.26 309.12 253.55C308.31 250.84 306.97 248.31 305.18 246.12C303.39 243.93 301.19 242.11 298.7 240.77C296.05 239.34 293.19 238.34 290.23 237.8C287.27 237.26 284.25 237.19 281.27 237.59C278.29 238 275.39 238.87 272.68 240.18C269.97 241.49 267.49 243.21 265.32 245.3L265.31 245.3C264.77 245.82 264.26 246.35 263.76 246.91C263.27 247.47 262.79 248.04 262.34 248.63C261.89 249.22 261.47 249.83 261.07 250.46C260.66 251.08 260.29 251.72 259.93 252.38L249 272.67Z" />
	<path id="Layer" class="shp5" d="M315.9 542.94L312.91 575.88L301.68 577.37L294.19 539.94L315.9 542.94L315.9 542.94Z" />
	<path id="Layer" class="shp4" d="M298.68 577.37C298.68 577.37 312.91 569.89 315.9 575.88C315.9 575.88 313.65 593.84 322.64 596.09C331.62 598.34 335.36 614.06 322.64 615.55C309.91 617.05 301.68 612.56 297.18 612.56C292.69 612.56 297.18 596.84 297.18 596.84L298.68 577.37Z" />
	<path id="Layer" class="shp5" d="M225.32 542.94L228.31 575.88L239.54 577.37L247.03 539.94L225.32 542.94L225.32 542.94Z" />
	<path id="Layer" class="shp4" d="M242.53 577.37C242.53 577.37 228.31 569.89 225.32 575.88C225.32 575.88 227.56 593.84 218.58 596.09C209.59 598.34 205.85 614.06 218.58 615.55C231.31 617.05 239.54 612.56 244.03 612.56C248.52 612.56 244.03 596.84 244.03 596.84L242.53 577.37Z" />
	<path id="Layer" class="shp5" d="M286.7 278.67C275.94 278.67 267.24 269.97 267.24 259.21C267.24 248.44 275.94 239.74 286.7 239.74C297.47 239.74 306.17 248.44 306.17 259.21C306.17 269.97 297.47 278.67 286.7 278.67Z" />
	<path id="Layer" class="shp5" d="M224.57 297.39L240.29 322.09L259 320.59L289.7 322.84C289.7 322.84 292.6 317.05 294.96 311.41C295.28 310.7 295.59 309.99 295.88 309.27C296.16 308.56 296.43 307.83 296.68 307.1C296.93 306.36 297.15 305.62 297.36 304.88C297.57 304.13 297.76 303.38 297.93 302.63C298.68 297.39 288.2 292.15 288.2 292.15C288.2 292.15 287.79 292.07 287.1 291.91C286.19 291.69 284.78 291.33 283.24 290.81C279.76 289.62 275.57 287.62 274.73 284.66C273.23 279.42 284.46 271.93 284.46 271.93L270.98 259.21C270.98 259.21 259.01 275.83 244.47 279.62C244.26 279.68 244.05 279.73 243.84 279.78C243.63 279.83 243.41 279.88 243.2 279.92C242.99 279.96 242.77 280 242.56 280.04C242.34 280.08 242.13 280.11 241.91 280.15C241.87 280.15 241.83 280.16 241.79 280.17C226.06 282.41 224.57 297.39 224.57 297.39Z" />
	<path id="Layer" class="shp5" d="M232.8 290.65L224.57 297.39C224.57 297.39 217.83 329.58 220.08 338.56C222.32 347.54 219.33 355.78 219.33 357.28C219.33 358.77 212.59 414.92 212.59 414.92C212.59 414.92 199.11 444.87 213.34 441.87C227.56 438.88 222.32 408.93 222.32 408.93L239.54 356.53L239.54 312.36L232.8 290.65Z" />
	<path id="Layer" class="shp5" d="M291.94 296.64L297.93 301.13L300.93 364.01L323.39 417.92C323.39 417.92 339.86 444.12 329.38 444.87C318.89 445.61 312.16 417.92 312.16 417.92L291.94 366.26L288.95 316.1L291.94 296.64Z" />
	<path id="Layer" class="shp4" d="M254.51 301.13C254.51 301.13 269.49 311.61 293.44 307.87C293.44 307.87 300.18 321.34 296.44 328.83C292.69 336.31 300.93 354.28 302.42 356.53C303.92 358.77 321.14 405.19 327.13 455.35C333.12 505.5 349.59 539.94 335.36 544.43C321.14 548.93 291.94 554.17 288.95 549.67C285.95 545.18 281.46 433.64 281.46 433.64L273.23 476.31C273.23 476.31 284.46 548.93 276.22 550.42C267.99 551.92 216.33 547.43 217.83 538.44C219.33 529.46 234.3 482.3 234.3 482.3C234.3 482.3 233.55 387.97 248.52 370C248.52 370 254.51 360.27 246.28 347.54C238.04 334.82 238.79 314.6 238.79 314.6C238.79 314.6 244.78 314.6 254.51 301.13Z" />
	<path id="Layer" class="shp4" d="M241.91 280.14L254.51 307.87L257.51 306.37L244.47 279.62L241.91 280.14L241.91 280.14Z" />
	<path id="Layer" class="shp4" d="M283.24 290.81L292.69 311.61L294.96 311.41L294.19 307.87L287.1 291.91C286.19 291.69 284.78 291.33 283.24 290.81Z" />
	<path id="Layer" class="shp4" d="M253.46 275.07C254.18 277.39 255.57 279.44 257.45 280.97C259.33 282.5 261.62 283.44 264.04 283.68C266.45 283.91 268.88 283.43 271.02 282.29C273.16 281.15 274.92 279.4 276.07 277.27C266.6 264.89 274.73 257.11 290.11 251.23C290.69 250.16 291.1 249.01 291.34 247.82C291.58 246.63 291.64 245.41 291.53 244.2C291.41 242.99 291.11 241.8 290.65 240.68C290.18 239.56 289.56 238.51 288.78 237.57C286.67 237.3 284.53 237.27 282.41 237.47C280.29 237.67 278.2 238.11 276.18 238.78C274.15 239.44 272.21 240.33 270.38 241.43C268.55 242.53 266.85 243.82 265.32 245.3L265.31 245.3L254.38 265.58C253.99 266.3 253.67 267.05 253.44 267.83C253.2 268.61 253.04 269.42 252.96 270.23C252.88 271.04 252.89 271.86 252.97 272.68C253.05 273.49 253.22 274.29 253.46 275.07Z" />
	<path id="Layer" class="shp5" d="M275.1 265.94C273.65 265.94 272.48 263.94 272.48 261.45C272.48 258.97 273.65 256.96 275.1 256.96C276.55 256.96 277.72 258.97 277.72 261.45C277.72 263.94 276.55 265.94 275.1 265.94Z" />
	<path id="Layer" class="shp4" d="M282.91 254.12L305.41 264.32L309.54 255.22C309.36 254.39 309.13 253.57 308.86 252.77C308.59 251.97 308.27 251.18 307.9 250.42C307.54 249.65 307.13 248.91 306.68 248.2C306.22 247.48 305.73 246.79 305.19 246.14L289.71 239.12L282.91 254.12Z" />
	<path id="Layer" class="shp2" d="M337 455C331.47 455 327 450.53 327 445C327 439.47 331.47 435 337 435C342.53 435 347 439.47 347 445C347 450.53 342.53 455 337 455Z" />
	<path id="Layer" class="shp6" d="M15.96 514.45C12.34 514.45 9.42 511.53 9.42 507.91C9.42 504.3 12.34 501.38 15.96 501.38C19.57 501.38 22.49 504.3 22.49 507.91C22.49 511.53 19.57 514.45 15.96 514.45Z" />
	<path id="Layer" class="shp1" d="M46.98 541.97L48.98 541.97L48.98 616.38L46.98 616.38L46.98 541.97Z" />
	<path id="Layer" class="shp1" d="M47.98 552.5C42.16 552.5 37.45 547.79 37.45 541.97C37.45 536.15 42.16 531.45 47.98 531.45C53.79 531.45 58.5 536.15 58.5 541.97C58.5 547.79 53.79 552.5 47.98 552.5Z" />
	<path id="Layer" class="shp1" d="M47.98 587.83C47.98 587.83 46.47 555.5 15.66 559.26" />
</svg>